<mxfile host="app.diagrams.net" modified="2024-07-04T17:26:44.291Z" agent="Mozilla/5.0 (Windows NT 10.0; Win64; x64) AppleWebKit/537.36 (KHTML, like Gecko) Chrome/126.0.0.0 Safari/537.36" etag="Aj3S450yN8wKGVIZxAZW" version="24.6.4" type="device">
  <diagram name="Page-1" id="Mqq-OsM1H1jpAREK9gOs">
    <mxGraphModel dx="880" dy="468" grid="1" gridSize="10" guides="1" tooltips="1" connect="1" arrows="1" fold="1" page="1" pageScale="1" pageWidth="850" pageHeight="1100" math="0" shadow="0">
      <root>
        <mxCell id="0" />
        <mxCell id="1" parent="0" />
        <mxCell id="jQm1Oz-zRoPoIkkzqJZ3-1" value="" style="whiteSpace=wrap;html=1;aspect=fixed;strokeColor=#CCCCCC;strokeWidth=2;" vertex="1" parent="1">
          <mxGeometry x="230" y="80" width="340" height="340" as="geometry" />
        </mxCell>
        <mxCell id="jQm1Oz-zRoPoIkkzqJZ3-3" value="" style="rounded=0;whiteSpace=wrap;html=1;strokeColor=#CCCCCC;strokeWidth=2;" vertex="1" parent="1">
          <mxGeometry x="250" y="100" width="300" height="30" as="geometry" />
        </mxCell>
        <mxCell id="jQm1Oz-zRoPoIkkzqJZ3-4" value="" style="rounded=0;whiteSpace=wrap;html=1;strokeColor=#CCCCCC;strokeWidth=2;" vertex="1" parent="1">
          <mxGeometry x="250" y="380" width="300" height="30" as="geometry" />
        </mxCell>
        <mxCell id="jQm1Oz-zRoPoIkkzqJZ3-6" value="" style="rounded=0;whiteSpace=wrap;html=1;strokeColor=#CCCCCC;strokeWidth=2;" vertex="1" parent="1">
          <mxGeometry x="250" y="150" width="80" height="210" as="geometry" />
        </mxCell>
        <mxCell id="jQm1Oz-zRoPoIkkzqJZ3-8" value="" style="rounded=0;whiteSpace=wrap;html=1;strokeColor=#CCCCCC;strokeWidth=2;" vertex="1" parent="1">
          <mxGeometry x="350" y="178" width="200" height="30" as="geometry" />
        </mxCell>
        <mxCell id="jQm1Oz-zRoPoIkkzqJZ3-9" value="" style="rounded=0;whiteSpace=wrap;html=1;strokeColor=#CCCCCC;strokeWidth=2;" vertex="1" parent="1">
          <mxGeometry x="350" y="218" width="200" height="30" as="geometry" />
        </mxCell>
        <mxCell id="jQm1Oz-zRoPoIkkzqJZ3-10" value="" style="rounded=0;whiteSpace=wrap;html=1;strokeColor=#CCCCCC;strokeWidth=2;" vertex="1" parent="1">
          <mxGeometry x="350" y="259" width="200" height="69" as="geometry" />
        </mxCell>
        <mxCell id="jQm1Oz-zRoPoIkkzqJZ3-11" value="" style="rounded=1;whiteSpace=wrap;html=1;strokeColor=#CCCCCC;strokeWidth=2;" vertex="1" parent="1">
          <mxGeometry x="350" y="340" width="70" height="20" as="geometry" />
        </mxCell>
      </root>
    </mxGraphModel>
  </diagram>
</mxfile>
